PathFileType	4	(X/Y/Z)	C:/Users/opensim2020/Desktop/walking_exp_matlab/subject06_walking15_straight_04.trc	
DataRate	CameraRate	NumFrames	NumMarkers	Units	OrigDataRate	OrigDataStartFrame	OrigNumFrames	
100.00	100.00	8	47	mm	100.00	2862	157	
Frame#	Time	LFHD			RFHD			LBHD			RBHD			C7			T10			CLAV			STRN			RBAK			LSHO			LUPA			LELB			LFRM			LWRA			LWRB			LFIN			RSHO			RUPA			RELB			RFRM			RWRA			RWRB			RFIN			LASI			RASI			LPSI			RPSI			LTHI			LKNE			LTIB			LANK			LHEE			LTOE			RTHI			RKNE			RTIB			RANK			RHEE			RTOE			*39			*40			*41			*42			*43			*44			*45			*46			
		X1	Y1	Z1	X2	Y2	Z2	X3	Y3	Z3	X4	Y4	Z4	X5	Y5	Z5	X6	Y6	Z6	X7	Y7	Z7	X8	Y8	Z8	X9	Y9	Z9	X10	Y10	Z10	X11	Y11	Z11	X12	Y12	Z12	X13	Y13	Z13	X14	Y14	Z14	X15	Y15	Z15	X16	Y16	Z16	X17	Y17	Z17	X18	Y18	Z18	X19	Y19	Z19	X20	Y20	Z20	X21	Y21	Z21	X22	Y22	Z22	X23	Y23	Z23	X24	Y24	Z24	X25	Y25	Z25	X26	Y26	Z26	X27	Y27	Z27	X28	Y28	Z28	X29	Y29	Z29	X30	Y30	Z30	X31	Y31	Z31	X32	Y32	Z32	X33	Y33	Z33	X34	Y34	Z34	X35	Y35	Z35	X36	Y36	Z36	X37	Y37	Z37	X38	Y38	Z38	X39	Y39	Z39	X40	Y40	Z40	X41	Y41	Z41	X42	Y42	Z42	X43	Y43	Z43	X44	Y44	Z44	X45	Y45	Z45	X46	Y46	Z46	X47	Y47	Z47	

1	0.000	-861.49011	1020.94763	1661.58179	-991.14111	995.46356	1657.95776	-889.64740	1149.81812	1603.41101	-1016.50061	1123.08362	1605.07275	-939.12305	1135.25269	1450.68213	-950.92603	1165.03284	1121.57837	-936.96735	1023.06879	1375.87817	-931.67657	982.61646	1202.10010	-1018.27155	1205.05750	1281.99390	-776.42401	1081.95715	1406.03149	-699.28912	1066.40259	1205.49414	-684.22430	1054.65710	1093.12256	-666.04730	992.78119	955.56763	-711.43005	905.12848	863.55823	-673.87640	961.50720	840.42877	-674.79407	898.30853	775.80249	-1099.48657	1066.23499	1407.82898	-1188.91223	1124.57581	1216.21472	-1202.35278	1129.58630	1093.73535	-1220.53320	1127.58032	973.40143	-1188.24097	1084.86267	827.31622	-1231.96533	1137.36584	836.31067	-1231.39551	1111.44507	755.07202	-843.71655	988.01056	962.84589	-1062.45642	986.10864	975.61658	-876.57806	1145.55688	988.39667	-1044.32300	1137.69275	991.02161	-798.39331	1063.65125	647.39746	-823.84094	1076.39368	483.76453	-839.70020	1138.48706	232.64925	-891.46051	1160.17432	64.43734	-936.40692	1201.32739	52.30569	-893.48486	1016.92969	34.34718	-1137.51172	949.54816	654.09766	-1117.74792	899.95880	537.95435	-1114.30188	994.22644	292.12302	-1072.43286	1052.34021	115.14628	-1021.34027	1088.70618	97.08785	-1098.68262	918.78320	44.84257	-936.94348	1109.43445	1700.62512																					 
2	0.010	-862.72095	1010.97620	1660.81763	-992.29517	985.31165	1656.94958	-890.89105	1139.87012	1602.79456	-1017.74615	1113.06763	1604.24780	-940.07617	1125.47192	1449.92004	-951.83594	1155.66785	1120.91174	-937.79810	1013.27063	1375.09094	-931.97131	973.12988	1201.25415	-1018.99048	1195.39233	1281.21130	-777.32745	1072.31189	1405.58936	-699.73181	1054.75964	1205.44836	-684.23779	1041.19214	1093.34546	-666.21814	975.21942	957.63159	-712.01221	884.48914	868.84222	-674.50037	940.18378	843.88428	-675.54474	874.67822	781.27893	-1100.40540	1056.44507	1406.80225	-1189.45789	1116.43335	1215.67480	-1203.01355	1122.47241	1093.25757	-1221.44080	1122.03516	972.91931	-1189.92712	1080.97681	826.18176	-1233.00281	1133.72656	835.85760	-1233.05164	1108.92896	754.44781	-843.66248	979.24786	961.91193	-1062.56067	976.25507	974.88580	-877.47498	1136.76550	987.67047	-1045.14209	1128.04443	990.26550	-798.88568	1057.62061	646.80231	-824.04675	1072.46887	483.24695	-839.93420	1136.76465	232.65410	-891.66510	1159.88892	64.56340	-936.62695	1201.12415	52.59647	-893.42053	1016.81897	34.27335	-1137.79443	939.18793	653.86517	-1117.80505	889.63361	537.58514	-1115.27209	973.35376	287.10608	-1074.28955	1020.77478	106.82307	-1022.83118	1055.43530	86.43877	-1101.76074	883.83417	43.87425	-938.29150	1099.32410	1699.86646																					 
3	0.020	-863.94653	1001.02240	1659.96484	-993.49847	975.21179	1655.92896	-892.15448	1129.86548	1602.02356	-1019.01532	1102.97546	1603.30042	-941.14117	1115.63831	1449.12085	-952.70813	1146.16357	1120.06018	-938.62927	1003.51337	1374.22644	-932.36633	963.45386	1200.34924	-1019.79608	1185.60681	1280.28284	-778.27515	1062.57581	1405.08826	-700.22119	1043.27014	1205.39136	-684.52216	1027.85974	1093.36987	-666.61304	957.85535	959.82465	-712.80872	864.33600	874.33893	-675.40411	918.84729	847.32214	-676.40857	851.42053	787.13049	-1101.35645	1046.49536	1405.69336	-1189.98669	1108.04077	1214.98474	-1203.73120	1115.19470	1092.71399	-1222.43164	1116.23853	972.41376	-1191.58411	1076.71484	825.08899	-1234.28638	1129.72742	835.52167	-1234.73767	1105.98352	753.81964	-843.70233	970.62134	960.78583	-1062.78381	966.35498	973.95764	-878.36896	1127.83240	986.80414	-1045.90479	1118.51111	989.37573	-799.45660	1051.36584	646.07025	-824.34326	1068.24976	482.70886	-840.15253	1134.65479	232.55176	-891.92175	1159.51416	64.73167	-936.90320	1200.83179	52.92854	-893.37817	1016.64880	34.19455	-1138.13281	929.72150	652.95807	-1117.90540	880.30927	536.61981	-1116.49084	952.54529	282.08221	-1076.20056	988.89081	99.12643	-1024.38269	1021.80884	76.68142	-1104.41589	848.74323	43.45009	-939.74091	1089.28247	1699.01978																					 
4	0.030	-865.20905	990.98322	1659.06055	-994.77026	965.02740	1654.79004	-893.51563	1119.85498	1601.18066	-1020.32660	1092.84912	1602.25354	-942.22705	1105.69397	1448.19690	-953.64319	1136.61731	1119.13062	-939.50684	993.66730	1373.23083	-932.70801	953.79181	1199.33093	-1020.72119	1175.75659	1279.34033	-779.30341	1052.79346	1404.55640	-700.82587	1031.90173	1205.27100	-684.61810	1014.67548	1093.66431	-666.92957	940.80609	962.13239	-713.69775	844.46887	880.04987	-676.37756	898.33057	851.17847	-677.49609	828.47809	793.27789	-1102.31348	1036.43738	1404.47205	-1190.75940	1099.44836	1214.33557	-1204.54968	1107.68542	1092.11719	-1223.43359	1110.13611	971.84296	-1193.25330	1072.07617	824.00348	-1235.50854	1125.38953	835.16376	-1236.47461	1102.69153	753.21851	-843.74481	962.08331	959.40845	-1063.02808	956.53137	972.81049	-879.23901	1118.80286	985.89795	-1046.72339	1109.02734	988.46149	-800.01483	1045.01135	645.34991	-824.72247	1063.67676	482.04034	-840.37537	1132.42261	232.51341	-892.13898	1159.05872	64.89705	-937.12915	1200.52429	53.32695	-893.36023	1016.50452	34.13818	-1138.37244	921.13171	651.37262	-1118.38538	871.74811	535.18640	-1117.89563	931.72778	277.20868	-1078.33032	956.78955	92.25508	-1026.27454	988.02600	67.98423	-1106.89917	813.96124	43.73186	-941.15881	1079.09167	1698.06274																					 
5	0.040	-866.51141	980.86969	1658.06213	-996.07770	954.84229	1653.60535	-894.90552	1109.79016	1600.24365	-1021.70129	1082.63745	1601.13708	-943.41748	1095.71777	1447.21130	-954.62531	1127.06494	1118.10864	-940.43011	983.67316	1372.21301	-933.20050	944.07483	1198.22839	-1021.71124	1165.87158	1278.36060	-780.40698	1043.03052	1403.97900	-701.48724	1020.54279	1205.15894	-685.02808	1001.50464	1093.79565	-667.62445	923.94714	964.56311	-714.79236	825.08746	885.94427	-677.77661	877.28595	854.81384	-678.82141	806.03235	799.69080	-1103.33228	1026.29065	1403.20898	-1191.52759	1090.73450	1213.57336	-1205.43994	1099.94922	1091.45642	-1224.56995	1103.71960	971.25641	-1194.87183	1067.09094	822.93573	-1236.77173	1120.56458	834.74548	-1237.82129	1098.66504	752.43311	-843.97772	952.81287	958.26508	-1063.28735	946.66895	971.55933	-880.14392	1109.66235	984.97168	-1047.63281	1099.62158	987.56171	-800.43488	1038.42444	644.46765	-825.22137	1058.75476	481.38434	-840.61908	1130.08337	232.59489	-892.42169	1158.64197	65.18176	-937.36719	1200.16040	53.78331	-893.36432	1016.30780	34.08984	-1138.49646	913.18390	649.11639	-1119.00879	864.36713	533.14124	-1119.39795	911.13202	272.73013	-1080.63611	924.63007	86.32686	-1028.58423	954.81348	61.03091	-1108.96106	779.30017	44.92838	-942.61584	1068.88342	1697.02222																					 
6	0.050	-867.89294	970.79810	1656.90234	-997.38873	944.61823	1652.32629	-896.32599	1099.68372	1599.20801	-1023.12988	1072.35901	1599.92139	-944.64490	1085.66089	1446.10327	-955.67389	1117.51880	1117.07849	-941.40967	973.65717	1371.02380	-933.69006	934.17822	1197.01990	-1022.70917	1155.82800	1277.24927	-781.57983	1033.16980	1403.28589	-702.21002	1009.23285	1204.92188	-685.62927	988.64746	1093.88147	-668.43335	907.37122	967.00317	-716.14050	806.01746	891.81763	-679.17487	857.13043	858.86035	-680.27582	784.01117	806.27081	-1104.37903	1015.98749	1401.85583	-1192.52588	1081.65015	1212.76965	-1206.39490	1091.99084	1090.69043	-1225.67944	1096.95581	970.54321	-1196.52661	1061.57068	821.78577	-1238.03101	1115.20593	834.21301	-1239.36621	1094.26147	751.65692	-844.37854	943.82135	956.87561	-1063.56775	936.63831	970.14874	-881.08527	1100.49561	984.01086	-1048.52307	1089.92297	986.52136	-801.05627	1031.59705	643.73816	-825.88550	1053.71582	480.61978	-841.08313	1127.54370	232.56750	-892.72968	1158.14197	65.47588	-937.68689	1199.79517	54.30781	-893.37354	1016.08423	34.01994	-1138.77905	906.15082	646.46863	-1119.25208	857.35052	530.62738	-1120.90613	890.83020	268.74695	-1083.19360	892.53699	81.51354	-1031.34229	921.35382	54.67289	-1110.60742	744.75354	46.93479	-944.12524	1058.67493	1695.88220																					 
7	0.060	-869.30713	960.67328	1655.71716	-998.71057	934.25665	1650.93542	-897.87451	1089.55359	1598.06494	-1024.56079	1062.01172	1598.58948	-945.95776	1075.50146	1444.92505	-956.67389	1107.94556	1115.96387	-942.46143	963.47083	1369.71204	-934.32153	924.19147	1195.79517	-1023.83997	1145.76343	1276.10449	-782.82288	1023.27539	1402.48779	-703.03046	997.91858	1204.65881	-686.08997	975.73981	1094.01660	-669.56213	891.01074	969.34674	-717.60858	787.54022	897.69397	-680.84351	837.42261	862.99933	-682.00983	762.49365	812.97260	-1105.49670	1005.63007	1400.40674	-1193.55835	1072.46399	1211.83557	-1207.41663	1083.69739	1089.80457	-1226.83777	1089.79663	969.73328	-1198.10193	1055.76172	820.60358	-1239.39197	1109.45105	833.57312	-1241.13831	1089.49854	750.88702	-844.93628	934.65570	955.54913	-1064.00684	926.68854	968.64105	-881.98358	1091.25549	982.95258	-1049.76367	1078.92761	985.02753	-801.73071	1024.57593	642.90204	-826.30713	1048.34277	479.92932	-841.41400	1125.07068	232.60193	-893.03906	1157.54810	65.76869	-938.22540	1199.55029	55.06124	-893.41754	1015.83667	33.94954	-1138.87463	899.73505	643.46637	-1119.51538	850.35126	527.69672	-1122.54236	871.02588	265.49173	-1086.12610	861.22620	78.06343	-1034.47546	888.57410	49.50709	-1111.96912	711.35272	50.17922	-945.68597	1048.40320	1694.66211																					 
8	0.070	-870.75580	950.49310	1654.46216	-1000.13947	923.93903	1649.52539	-899.45264	1079.36987	1596.82007	-1026.13013	1051.68298	1597.16724	-947.31836	1065.24902	1443.65991	-957.61798	1098.27002	1114.73975	-943.60217	953.25226	1368.41638	-935.04022	914.07440	1194.49365	-1025.06567	1135.94324	1274.74316	-784.14655	1013.37897	1401.59253	-703.90515	986.54150	1204.32336	-686.89240	962.80310	1094.08264	-670.43256	875.05475	971.74615	-719.20935	769.43451	903.60223	-682.53760	818.10736	867.19135	-683.84283	741.46796	819.77106	-1106.67944	995.11938	1398.91321	-1194.60205	1063.08374	1210.77148	-1208.50659	1075.21826	1088.87134	-1228.11401	1082.31995	968.88501	-1199.72241	1049.37427	819.36359	-1240.76794	1103.19666	832.84326	-1242.65906	1083.97522	749.91559	-845.51910	925.56989	954.30414	-1064.39233	915.50726	967.35474	-882.94275	1081.98792	981.71240	-1050.65967	1068.95032	983.68286	-802.32623	1017.39075	641.93170	-826.87354	1042.86450	479.12354	-841.83557	1122.53333	232.68137	-893.37738	1156.99878	66.08933	-938.70087	1199.28406	55.87973	-893.47400	1015.71332	33.86343	-1139.31689	893.61652	640.33234	-1119.77759	843.48657	524.69940	-1123.93311	851.37494	262.68604	-1088.76563	830.86847	75.92223	-1037.52905	857.37494	46.24411	-1112.97241	679.36298	54.41549	-947.31354	1038.13318	1693.31396																					 
